<?xml version="1.0" encoding="UTF-8" standalone="no"?>
<!-- This is a Stata 16.1 generated SVG file (http://www.stata.com) -->

<svg version="1.1" width="5.50in" height="4.00in" viewBox="0 0 3960 2880" xmlns="http://www.w3.org/2000/svg" xmlns:xlink="http://www.w3.org/1999/xlink">
	<desc>Stata Graph - test</desc>
	<rect x="0" y="0" width="3960" height="2880" style="fill:#EAF2F3;stroke:none"/>
	<rect x="0.00" y="0.00" width="3959.88" height="2880.00" style="fill:#EAF2F3"/>
	<rect x="2.88" y="2.88" width="3954.12" height="2874.24" style="fill:none;stroke:#EAF2F3;stroke-width:5.76"/>
	<rect x="390.80" y="100.86" width="3468.22" height="2388.33" style="fill:#FFFFFF"/>
	<rect x="393.68" y="103.74" width="3462.46" height="2382.57" style="fill:none;stroke:#FFFFFF;stroke-width:5.76"/>
	<line x1="390.80" y1="2489.19" x2="3859.02" y2="2489.19" style="stroke:#EAF2F3;stroke-width:8.64"/>
	<line x1="390.80" y1="1907.91" x2="3859.02" y2="1907.91" style="stroke:#EAF2F3;stroke-width:8.64"/>
	<line x1="390.80" y1="1326.64" x2="3859.02" y2="1326.64" style="stroke:#EAF2F3;stroke-width:8.64"/>
	<line x1="390.80" y1="745.37" x2="3859.02" y2="745.37" style="stroke:#EAF2F3;stroke-width:8.64"/>
	<line x1="390.80" y1="164.22" x2="3859.02" y2="164.22" style="stroke:#EAF2F3;stroke-width:8.64"/>
	<rect x="650.68" y="400.59" width="393.15" height="2088.59" style="fill:#CAC27E"/>
	<rect x="655.00" y="404.91" width="384.51" height="2079.95" style="fill:none;stroke:#D7D29E;stroke-width:8.64"/>
	<rect x="1043.83" y="1308.70" width="393.15" height="1180.49" style="fill:#CAC27E"/>
	<rect x="1048.15" y="1313.02" width="384.51" height="1171.85" style="fill:none;stroke:#D7D29E;stroke-width:8.64"/>
	<rect x="1436.98" y="2125.97" width="393.15" height="363.22" style="fill:#CAC27E"/>
	<rect x="1441.30" y="2130.29" width="384.51" height="354.58" style="fill:none;stroke:#D7D29E;stroke-width:8.64"/>
	<rect x="1830.14" y="854.64" width="393.03" height="1634.54" style="fill:#CAC27E"/>
	<rect x="1834.46" y="858.96" width="384.39" height="1625.90" style="fill:none;stroke:#D7D29E;stroke-width:8.64"/>
	<rect x="2223.17" y="2398.35" width="393.15" height="90.84" style="fill:#CAC27E"/>
	<rect x="2227.49" y="2402.67" width="384.51" height="82.20" style="fill:none;stroke:#D7D29E;stroke-width:8.64"/>
	<rect x="2616.32" y="1853.59" width="393.15" height="635.60" style="fill:#CAC27E"/>
	<rect x="2620.64" y="1857.91" width="384.51" height="626.96" style="fill:none;stroke:#D7D29E;stroke-width:8.64"/>
	<rect x="3009.48" y="2035.13" width="393.15" height="454.05" style="fill:#CAC27E"/>
	<rect x="3013.80" y="2039.45" width="384.51" height="445.41" style="fill:none;stroke:#D7D29E;stroke-width:8.64"/>
	<rect x="3402.63" y="2216.80" width="393.03" height="272.38" style="fill:#CAC27E"/>
	<rect x="3406.95" y="2221.12" width="384.39" height="263.74" style="fill:none;stroke:#D7D29E;stroke-width:8.64"/>
	<line x1="390.80" y1="2489.19" x2="390.80" y2="100.86" style="stroke:#000000;stroke-width:5.76"/>
	<line x1="390.80" y1="2489.19" x2="350.83" y2="2489.19" style="stroke:#000000;stroke-width:5.76"/>
	<text x="300.72" y="2489.19" style="font-family:'Helvetica';font-size:99.99px;fill:#000000" transform="rotate(-90 300.72,2489.19)" text-anchor="middle">0</text>
	<line x1="390.80" y1="1907.91" x2="350.83" y2="1907.91" style="stroke:#000000;stroke-width:5.76"/>
	<text x="300.72" y="1907.91" style="font-family:'Helvetica';font-size:99.99px;fill:#000000" transform="rotate(-90 300.72,1907.91)" text-anchor="middle">.002</text>
	<line x1="390.80" y1="1326.64" x2="350.83" y2="1326.64" style="stroke:#000000;stroke-width:5.76"/>
	<text x="300.72" y="1326.64" style="font-family:'Helvetica';font-size:99.99px;fill:#000000" transform="rotate(-90 300.72,1326.64)" text-anchor="middle">.004</text>
	<line x1="390.80" y1="745.37" x2="350.83" y2="745.37" style="stroke:#000000;stroke-width:5.76"/>
	<text x="300.72" y="745.37" style="font-family:'Helvetica';font-size:99.99px;fill:#000000" transform="rotate(-90 300.72,745.37)" text-anchor="middle">.006</text>
	<line x1="390.80" y1="164.22" x2="350.83" y2="164.22" style="stroke:#000000;stroke-width:5.76"/>
	<text x="300.72" y="164.22" style="font-family:'Helvetica';font-size:99.99px;fill:#000000" transform="rotate(-90 300.72,164.22)" text-anchor="middle">.008</text>
	<text x="190.71" y="1294.96" style="font-family:'Helvetica';font-size:99.99px;fill:#000000" transform="rotate(-90 190.71,1294.96)" text-anchor="middle">Density</text>
	<line x1="390.80" y1="2489.19" x2="3859.02" y2="2489.19" style="stroke:#000000;stroke-width:5.76"/>
	<line x1="841.62" y1="2489.19" x2="841.62" y2="2529.16" style="stroke:#000000;stroke-width:5.76"/>
	<text x="841.62" y="2619.14" style="font-family:'Helvetica';font-size:99.99px;fill:#000000" text-anchor="middle">100</text>
	<line x1="1750.57" y1="2489.19" x2="1750.57" y2="2529.16" style="stroke:#000000;stroke-width:5.76"/>
	<text x="1750.57" y="2619.14" style="font-family:'Helvetica';font-size:99.99px;fill:#000000" text-anchor="middle">200</text>
	<line x1="2659.51" y1="2489.19" x2="2659.51" y2="2529.16" style="stroke:#000000;stroke-width:5.76"/>
	<text x="2659.51" y="2619.14" style="font-family:'Helvetica';font-size:99.99px;fill:#000000" text-anchor="middle">300</text>
	<line x1="3568.45" y1="2489.19" x2="3568.45" y2="2529.16" style="stroke:#000000;stroke-width:5.76"/>
	<text x="3568.45" y="2619.14" style="font-family:'Helvetica';font-size:99.99px;fill:#000000" text-anchor="middle">400</text>
	<text x="2124.91" y="2729.16" style="font-family:'Helvetica';font-size:99.99px;fill:#000000" text-anchor="middle">Displacement (cu. in.)</text>
</svg>
